<?xml version="1.0" encoding="UTF-8"?>
<svg version="1.1" xmlns="http://www.w3.org/2000/svg" width="506" height="153">
<path d="M0 0 C166.98 0 333.96 0 506 0 C506 50.49 506 100.98 506 153 C339.02 153 172.04 153 0 153 C0 102.51 0 52.02 0 0 Z " fill="#FDFDFD" transform="translate(0,0)"/>
<path d="M0 0 C2.34671498 0.00141227 4.69343217 0.000615 7.04014587 -0.00221252 C13.37821296 -0.00364107 19.71580232 0.02565821 26.05375886 0.06065726 C32.01612752 0.08883258 37.97849773 0.09378203 43.94092032 0.09891663 C55.74130194 0.10982748 67.54150958 0.1430139 79.34179688 0.19042969 C90.7965407 0.23640881 102.25123706 0.27175966 113.70605469 0.29296875 C114.41354423 0.29428237 115.12103377 0.29559598 115.84996239 0.29694941 C119.39965281 0.30347516 122.94934355 0.30979357 126.49903452 0.31600893 C155.89163963 0.36774183 185.28407478 0.4560938 214.67651367 0.56762695 C213.88575439 1.35371338 213.09499512 2.1397998 212.28027344 2.94970703 C200.84902353 14.44312408 199.06600045 25.61876576 198.92651367 41.19262695 C198.89830237 42.78510658 198.86836788 44.37755666 198.83666992 45.9699707 C198.76342053 49.83580225 198.71347557 53.70128517 198.67651367 57.56762695 C201.97651367 57.56762695 205.27651367 57.56762695 208.67651367 57.56762695 C208.67651367 48.65762695 208.67651367 39.74762695 208.67651367 30.56762695 C206.36651367 30.56762695 204.05651367 30.56762695 201.67651367 30.56762695 C201.67651367 29.90762695 201.67651367 29.24762695 201.67651367 28.56762695 C209.59651367 28.56762695 217.51651367 28.56762695 225.67651367 28.56762695 C225.01651367 29.22762695 224.35651367 29.88762695 223.67651367 30.56762695 C221.69651367 30.56762695 219.71651367 30.56762695 217.67651367 30.56762695 C217.67651367 50.69762695 217.67651367 70.82762695 217.67651367 91.56762695 C221.63651367 92.06262695 221.63651367 92.06262695 225.67651367 92.56762695 C225.67651367 93.22762695 225.67651367 93.88762695 225.67651367 94.56762695 C217.42651367 94.56762695 209.17651367 94.56762695 200.67651367 94.56762695 C200.67651367 93.90762695 200.67651367 93.24762695 200.67651367 92.56762695 C203.31651367 92.23762695 205.95651367 91.90762695 208.67651367 91.56762695 C208.67651367 81.33762695 208.67651367 71.10762695 208.67651367 60.56762695 C205.37651367 60.56762695 202.07651367 60.56762695 198.67651367 60.56762695 C198.69603782 67.75404487 198.74807461 74.93925599 198.82910156 82.12524414 C198.85217253 84.56528128 198.86665143 87.00541645 198.87207031 89.44555664 C198.88143945 92.97123554 198.9226065 96.49539525 198.96948242 100.02075195 C198.96358345 101.6340036 198.96358345 101.6340036 198.95756531 103.27984619 C199.13207994 112.52102437 201.76953713 120.16563391 206.86401367 127.88012695 C210.21055718 131.07793519 213.80938091 133.60001945 217.66479492 136.1496582 C218.6605957 136.85155273 218.6605957 136.85155273 219.67651367 137.56762695 C219.67651367 137.89762695 219.67651367 138.22762695 219.67651367 138.56762695 C188.50780747 138.65893822 157.33913674 138.72969703 126.17032848 138.77188827 C122.48798244 138.77689091 118.80563666 138.78206822 115.12329102 138.78735352 C114.39022289 138.78840276 113.65715476 138.789452 112.90187244 138.79053304 C101.04251075 138.80792359 89.18322685 138.83945381 77.32391126 138.87623814 C65.14911423 138.91368519 52.97435785 138.93587075 40.79950559 138.94398093 C33.29097447 138.94946093 25.78266329 138.96674948 18.27419989 138.99929282 C12.5102148 139.02299792 6.74636968 139.0254373 0.98234558 139.02005768 C-1.37747677 139.02115642 -3.7373076 139.02909031 -6.09708023 139.04444885 C-9.32563308 139.06442783 -12.55325424 139.05953666 -15.78182983 139.04864502 C-17.17389713 139.06612207 -17.17389713 139.06612207 -18.594087 139.08395219 C-27.95943904 138.99888685 -35.66665003 136.00884298 -42.50317383 129.55981445 C-49.50494043 121.89693684 -52.6152606 114.59846688 -52.64575195 104.18237305 C-52.65568176 103.36196533 -52.66561157 102.54155762 -52.67584229 101.69628906 C-52.70493877 98.99451272 -52.71866663 96.29297144 -52.72973633 93.59106445 C-52.73539108 92.66274433 -52.74104584 91.73442421 -52.74687195 90.77797318 C-52.77680278 85.86230592 -52.79529328 80.94675518 -52.80395508 76.03100586 C-52.814898 70.9806467 -52.86290974 65.9313732 -52.91989899 60.88135338 C-52.95735865 56.97426356 -52.96757391 53.06742946 -52.97062683 49.16017532 C-52.97663767 47.30000519 -52.99255058 45.43983726 -53.01899719 43.57984543 C-53.18665004 30.87917135 -52.35589758 21.62996208 -43.76098633 11.56762695 C-42.95661133 10.90762695 -42.15223633 10.24762695 -41.32348633 9.56762695 C-40.55865527 8.922364 -39.79382421 8.27710104 -39.00581646 7.61228466 C-27.40141258 -1.23339528 -13.840285 -0.11703849 0 0 Z " fill="#DBE6F4" transform="translate(61.323486328125,7.432373046875)"/>
<path d="M0 0 C5.91950905 2.17996476 9.1444032 5.64666872 12 11.1875 C17.09619501 22.70702413 17.09812745 39.15897407 13.3125 51.1875 C10.67686219 57.4424996 7.23314608 61.96333909 1 65 C-4.22605083 66.91621864 -9.43448743 66.45969504 -14.5625 64.5 C-20.37622034 61.7022711 -23.7328872 57.24339766 -26.0534668 51.3034668 C-27.60673596 45.88244926 -27.37190929 40.39244813 -27.37060547 34.79711914 C-27.3749675 32.70310395 -27.41130919 30.61121987 -27.44921875 28.51757812 C-27.525798 19.63187187 -26.92207003 12.49928034 -20.9296875 5.625 C-20.25164062 5.08875 -19.57359375 4.5525 -18.875 4 C-18.19179688 3.443125 -17.50859375 2.88625 -16.8046875 2.3125 C-11.82760653 -1.30719525 -5.90424022 -0.68464783 0 0 Z " fill="#FBFBFB" transform="translate(456,36)"/>
<path d="M0 0 C4.83799361 -0.09951569 9.67538025 -0.17177037 14.51416016 -0.21972656 C16.1571695 -0.23973571 17.80010859 -0.26695213 19.44287109 -0.30175781 C21.81625788 -0.35075305 24.18869649 -0.37307504 26.5625 -0.390625 C27.64893799 -0.42159271 27.64893799 -0.42159271 28.75732422 -0.45318604 C35.70942442 -0.45618608 40.66270901 2.10095107 46 6.4375 C49.00869862 10.40166372 48.51368228 15.11046817 48.46875 19.87890625 C47.94350104 23.37618891 47.18554464 25.22878653 45 28 C42.51953125 29.58203125 42.51953125 29.58203125 39.8125 30.8125 C38.46091797 31.44091797 38.46091797 31.44091797 37.08203125 32.08203125 C36.39496094 32.38496094 35.70789063 32.68789062 35 33 C36.0828125 33.8353125 36.0828125 33.8353125 37.1875 34.6875 C44.62324572 40.80133537 46.87227621 45.46762061 48.625 54.8125 C48.82609375 55.85180664 48.82609375 55.85180664 49.03125 56.91210938 C49.35858288 58.60722609 49.67990594 60.30350146 50 62 C52.64 61.67 55.28 61.34 58 61 C57 64 57 64 54.375 65.6875 C50.53655776 67.18022754 48.08308492 67.51966535 44 67 C41.02602131 65.47996645 39.45486237 64.28354842 38.3203125 61.08203125 C37.77906361 58.7296803 37.37262338 56.38478966 37 54 C35.93263634 47.9638745 34.84832707 42.46878797 32 37 C27.79105375 33.84068791 27.79105375 33.84068791 16 34 C16 43.57 16 53.14 16 63 C18.64 63.33 21.28 63.66 24 64 C24 64.66 24 65.32 24 66 C16.08 66 8.16 66 0 66 C0 65.34 0 64.68 0 64 C3.465 63.505 3.465 63.505 7 63 C7 42.87 7 22.74 7 2 C4.69 2 2.38 2 0 2 C0 1.34 0 0.68 0 0 Z " fill="#090909" transform="translate(357,36)"/>
<path d="M0 0 C22.3626943 0 22.3626943 0 27.828125 4.5078125 C28.29734375 5.04148437 28.7665625 5.57515625 29.25 6.125 C29.96929687 6.90230469 29.96929687 6.90230469 30.703125 7.6953125 C34.50281771 14.44777847 34.33855075 22.45570167 34.3125 30 C34.32861328 30.93328125 34.34472656 31.8665625 34.36132812 32.828125 C34.36661248 40.39531938 33.4029403 48.10323627 28.125 53.9375 C27.65320313 54.48277344 27.18140625 55.02804688 26.6953125 55.58984375 C19.10368192 61.90454107 9.50254124 59 0 59 C0 39.53 0 20.06 0 0 Z " fill="#DAE5F4" transform="translate(170,40)"/>
<path d="M0 0 C4.53484864 -0.09972601 9.0690432 -0.17186655 13.60473633 -0.21972656 C15.14391211 -0.23970121 16.68301338 -0.26689097 18.22192383 -0.30175781 C36.91182835 -0.71425814 36.91182835 -0.71425814 43.60131836 5.48364258 C48.24171829 10.7218109 48.29158153 15.36123324 48.2109375 22.0546875 C47.83383135 27.32020673 45.9258032 30.3561615 42.0625 33.75 C38.04983809 36.69807814 35.47041936 38.26311378 30.453125 38.1953125 C29.69161133 38.19031738 28.93009766 38.18532227 28.14550781 38.18017578 C27.18999023 38.16196777 26.23447266 38.14375977 25.25 38.125 C20.67125 38.063125 20.67125 38.063125 16 38 C16 45.59 16 53.18 16 61 C18.31 61 20.62 61 23 61 C23 61.66 23 62.32 23 63 C15.41 63 7.82 63 0 63 C0 62.34 0 61.68 0 61 C2.31 61 4.62 61 7 61 C7 41.53 7 22.06 7 2 C4.69 2 2.38 2 0 2 C0 1.34 0 0.68 0 0 Z " fill="#0950B0" transform="translate(43,38)"/>
<path d="M0 0 C7.92 0 15.84 0 24 0 C23.34 0.66 22.68 1.32 22 2 C20.02 2 18.04 2 16 2 C16 11.24 16 20.48 16 30 C26.56 30 37.12 30 48 30 C48 20.76 48 11.52 48 2 C45.69 2 43.38 2 41 2 C41 1.34 41 0.68 41 0 C48.92 0 56.84 0 65 0 C64.34 0.66 63.68 1.32 63 2 C61.02 2 59.04 2 57 2 C57 22.13 57 42.26 57 63 C59.64 63.33 62.28 63.66 65 64 C65 64.66 65 65.32 65 66 C56.75 66 48.5 66 40 66 C40 65.34 40 64.68 40 64 C42.64 63.67 45.28 63.34 48 63 C48 52.77 48 42.54 48 32 C37.44 32 26.88 32 16 32 C16 42.23 16 52.46 16 63 C18.31 63 20.62 63 23 63 C23.33 63.99 23.66 64.98 24 66 C16.08 66 8.16 66 0 66 C0 65.01 0 64.02 0 63 C2.31 63 4.62 63 7 63 C7 43.53 7 24.06 7 4 C4.69 4 2.38 4 0 4 C0 2.68 0 1.36 0 0 Z " fill="#020304" transform="translate(222,36)"/>
<path d="M0 0 C5.28357911 -0.07448116 10.56684863 -0.12875795 15.85083008 -0.16479492 C17.64613167 -0.17982716 19.44139688 -0.20025857 21.23657227 -0.22631836 C23.82577526 -0.26294786 26.41449028 -0.2797821 29.00390625 -0.29296875 C30.19651817 -0.31619453 30.19651817 -0.31619453 31.41322327 -0.33988953 C39.96039922 -0.34243698 46.86876957 3.04252913 53 9 C60.10144593 18.59156333 60.64644384 27.36401085 60 39 C58.86105372 46.12625104 55.18544101 52.03583013 50 57 C42.98333248 61.47192771 36.87653274 63.15138078 28.61328125 63.09765625 C27.79627243 63.0962413 26.97926361 63.09482635 26.13749695 63.09336853 C23.52912732 63.08777294 20.92084366 63.07522129 18.3125 63.0625 C16.54362103 63.05748443 14.77474072 63.05292162 13.00585938 63.04882812 C8.67053981 63.03780496 4.33528448 63.02054338 0 63 C0 62.34 0 61.68 0 61 C2.31 61 4.62 61 7 61 C7 41.53 7 22.06 7 2 C4.69 2 2.38 2 0 2 C0 1.34 0 0.68 0 0 Z M16 2 C16 21.47 16 40.94 16 61 C31.89327875 62.46079611 31.89327875 62.46079611 43.828125 56.45703125 C44.29734375 55.91433594 44.7665625 55.37164062 45.25 54.8125 C45.72953125 54.28269531 46.2090625 53.75289062 46.703125 53.20703125 C50.52376458 46.7050392 50.31002352 39.37036322 50.25 32.0625 C50.25773437 31.12470703 50.26546875 30.18691406 50.2734375 29.22070312 C50.25208488 21.53909649 50.21085069 13.45325761 44.6875 7.5625 C44.11386719 6.92441406 43.54023438 6.28632812 42.94921875 5.62890625 C35.12401233 -0.9103945 26.2609505 2 16 2 Z " fill="#0A51B0" transform="translate(154,38)"/>
<path d="M0 0 C0.70705078 0.00829834 1.41410156 0.01659668 2.14257812 0.02514648 C11.03677722 0.3120232 16.96972309 3.45982152 23.3984375 9.453125 C31.21201097 18.11970868 32.73543989 28.24025282 32.56640625 39.54296875 C31.76460017 47.78421269 28.73871264 55.97000337 22.921875 62.01171875 C14.70082902 68.77001106 5.71488746 71.41087153 -4.8125 70.4375 C-12.33977243 68.66865553 -18.88546437 64.34994276 -23.8125 58.4375 C-30.28173256 47.13204503 -33.13391357 36.14196043 -29.6875 23.1875 C-26.16641807 13.09919085 -20.05689245 7.13820783 -11.05078125 1.80078125 C-7.28947727 0.21731311 -4.01562322 -0.06065463 0 0 Z M-16.515625 11.4609375 C-20.73496926 17.89162484 -20.18482381 25.26611752 -20.18310547 32.64038086 C-20.1874675 34.73439605 -20.22380919 36.82628013 -20.26171875 38.91992188 C-20.32541087 46.56895254 -19.8407373 52.79881166 -15.8125 59.4375 C-14.9771875 60.8296875 -14.9771875 60.8296875 -14.125 62.25 C-9.85493584 66.28924988 -4.98283026 68.17556359 0.8125 68.875 C7.11668306 68.05779108 13.09980043 65.4467041 17.1875 60.4375 C21.63382289 51.71477739 22.41619135 43.96725661 22.5 34.3125 C22.52900391 33.22195312 22.55800781 32.13140625 22.58789062 31.0078125 C22.65472229 22.41223211 20.96474857 15.84279084 16.375 8.5625 C11.28065307 3.61370584 7.67591026 2.17038884 0.625 1.9375 C-7.55900805 2.22777946 -11.31107381 5.55684986 -16.515625 11.4609375 Z " fill="#0D0D0D" transform="translate(448.8125,33.5625)"/>
<path d="M0 0 C16.83 0 33.66 0 51 0 C51 6.6 51 13.2 51 20 C50.01 20 49.02 20 48 20 C45.03 11.585 45.03 11.585 42 3 C33.75 2.67 25.5 2.34 17 2 C17 12.23 17 22.46 17 33 C22.445 32.505 22.445 32.505 28 32 C28.598125 30.370625 29.19625 28.74125 29.8125 27.0625 C30.83203125 24.28515625 30.83203125 24.28515625 32 22 C32.99 21.67 33.98 21.34 35 21 C35 29.58 35 38.16 35 47 C34.34 47 33.68 47 33 47 C30.525 41.06 30.525 41.06 28 35 C24.37 34.67 20.74 34.34 17 34 C17 44.23 17 54.46 17 65 C25.91 65 34.82 65 44 65 C44.33 63.02 44.66 61.04 45 59 C45.79671124 56.85279789 46.65188125 54.72642789 47.5625 52.625 C48.01753906 51.56539062 48.47257812 50.50578125 48.94140625 49.4140625 C49.29074219 48.61742187 49.64007813 47.82078125 50 47 C50.99 47 51.98 47 53 47 C53 53.6 53 60.2 53 67 C35.84 67 18.68 67 1 67 C1 66.34 1 65.68 1 65 C4.465 64.505 4.465 64.505 8 64 C8 43.87 8 23.74 8 3 C5.69 3 3.38 3 1 3 C0.67 2.01 0.34 1.02 0 0 Z " fill="#121212" transform="translate(296,35)"/>
<path d="M0 0 C0.66 0 1.32 0 2 0 C5.49257636 9.92841591 8.98255727 19.8577377 12.46794128 29.78868103 C13.77722213 33.51890055 15.08705481 37.24891699 16.40087891 40.97753906 C17.54076554 44.21325966 18.67717813 47.45017564 19.8125 50.6875 C20.14314453 51.62279541 20.47378906 52.55809082 20.81445312 53.52172852 C21.10900391 54.36405029 21.40355469 55.20637207 21.70703125 56.07421875 C21.9594458 56.79182373 22.21186035 57.50942871 22.47192383 58.2487793 C23 60 23 60 23 62 C25.31 62.33 27.62 62.66 30 63 C30 63.66 30 64.32 30 65 C22.41 65 14.82 65 7 65 C7 64.34 7 63.68 7 63 C9.97 62.505 9.97 62.505 13 62 C12.6390625 60.95199219 12.278125 59.90398437 11.90625 58.82421875 C11.43726182 57.44539349 10.9685249 56.06648275 10.5 54.6875 C10.26152344 53.99720703 10.02304688 53.30691406 9.77734375 52.59570312 C8.76791737 49.61068511 8 47.17341086 8 44 C0.74 44.33 -6.52 44.66 -14 45 C-15.98 50.28 -17.96 55.56 -20 61 C-17.69 61.66 -15.38 62.32 -13 63 C-13 63.66 -13 64.32 -13 65 C-18.61 65 -24.22 65 -30 65 C-29.67 64.01 -29.34 63.02 -29 62 C-28.0447493 61.72196533 -27.0894986 61.44393066 -26.1053009 61.1574707 C-22.84713548 60.29788102 -22.84713548 60.29788102 -21.44999695 57.57104492 C-20.8882653 56.04120972 -20.8882653 56.04120972 -20.31518555 54.48046875 C-19.87840988 53.32587158 -19.44163422 52.17127441 -18.99162292 50.98168945 C-18.53953095 49.71712301 -18.08790734 48.45238904 -17.63671875 47.1875 C-17.15648292 45.8940167 -16.67417756 44.60130005 -16.18989563 43.30932617 C-14.92222313 39.91100139 -13.6822203 36.50322087 -12.44793701 33.09265137 C-11.18637424 29.62094888 -9.90009546 26.15844507 -8.61523438 22.6953125 C-7.17349846 18.80582434 -5.73449044 14.91548641 -4.31364441 11.01831055 C-3.89262955 9.86371338 -3.47161469 8.70911621 -3.0378418 7.51953125 C-2.667332 6.49964111 -2.2968222 5.47975098 -1.91508484 4.42895508 C-1 2 -1 2 0 0 Z " fill="#0850AF" transform="translate(122,36)"/>
<path d="M0 0 C14 0 14 0 19 3 C22.51011963 7.23820121 22.45718716 11.1820877 22.375 16.4375 C22.38660156 17.17548828 22.39820312 17.91347656 22.41015625 18.67382812 C22.38439743 23.5036064 21.60878808 26.80048748 19 31 C13.02794701 36.41217303 8.76737172 35 0 35 C0 23.45 0 11.9 0 0 Z " fill="#D6E3F3" transform="translate(59,40)"/>
<path d="M0 0 C13.7654321 0 13.7654321 0 19 4 C21.43629077 6.45874506 21.9704934 7.75989728 22.3984375 11.2421875 C22.39070313 12.44101562 22.38296875 13.63984375 22.375 14.875 C22.38273437 16.06867187 22.39046875 17.26234375 22.3984375 18.4921875 C21.96440525 22.31337341 20.98946243 24.72886466 19 28 C13.01885525 32.72195638 8.29441183 31 0 31 C0 20.77 0 10.54 0 0 Z " fill="#F4F4F4" transform="translate(373,37)"/>
<path d="M0 0 C8.73107625 4.41023647 13.66901455 10.70183646 17 19.796875 C20.38970024 30.51270156 19.6987896 41.03414857 15.203125 51.28125 C11.24376419 58.82288964 6.31976223 62.41864133 -1.2734375 66.09375 C-2.2634375 66.58875 -2.2634375 66.58875 -3.2734375 67.09375 C-5.4807298 67.16467842 -7.69011202 67.17790025 -9.8984375 67.15625 C-11.08695312 67.14722656 -12.27546875 67.13820313 -13.5 67.12890625 C-14.87285156 67.11150391 -14.87285156 67.11150391 -16.2734375 67.09375 C-16.2734375 66.76375 -16.2734375 66.43375 -16.2734375 66.09375 C-15.2215625 65.98160156 -15.2215625 65.98160156 -14.1484375 65.8671875 C-7.28214288 64.91560863 -1.92646342 63.47106769 2.7265625 58.09375 C4.47901478 54.86393969 5.69782929 51.61585355 6.7265625 48.09375 C6.9009082 47.49852539 7.07525391 46.90330078 7.25488281 46.29003906 C8.26074494 41.60642846 7.99764676 36.73984358 8.0390625 31.96875 C8.06806641 30.87820312 8.09707031 29.78765625 8.12695312 28.6640625 C8.19386735 20.05786433 6.88709756 12.90259994 1.2890625 6.15625 C-4.00561865 1.89467737 -7.57607312 0.66132325 -14.2734375 0.09375 C-9.75366192 -3.1077577 -4.80448509 -1.91518993 0 0 Z " fill="#090909" transform="translate(462.2734375,35.90625)"/>
<path d="M0 0 C0.66 0 1.32 0 2 0 C3.34065238 3.93504649 4.67126071 7.87341646 6 11.8125 C6.3815625 12.93205078 6.763125 14.05160156 7.15625 15.20507812 C7.5171875 16.27822266 7.878125 17.35136719 8.25 18.45703125 C8.58515625 19.44678955 8.9203125 20.43654785 9.265625 21.45629883 C10 24 10 24 10 27 C3.73 27 -2.54 27 -9 27 C-8.25586432 23.27932159 -7.44581937 20.21008115 -6.15234375 16.69921875 C-5.79462891 15.72275391 -5.43691406 14.74628906 -5.06835938 13.74023438 C-4.50858398 12.22913086 -4.50858398 12.22913086 -3.9375 10.6875 C-3.37192383 9.14739258 -3.37192383 9.14739258 -2.79492188 7.57617188 C-1.86653932 5.04956113 -0.93479871 2.52424239 0 0 Z " fill="#D4E1F2" transform="translate(118,51)"/>
<path d="M0 0 C0.66 0.33 1.32 0.66 2 1 C-0.33333333 8 -2.66666667 15 -5 22 C1.6 22 8.2 22 15 22 C15 22.33 15 22.66 15 23 C4.605 23.495 4.605 23.495 -6 24 C-7.98 29.28 -9.96 34.56 -12 40 C-9.69 40.66 -7.38 41.32 -5 42 C-5 42.66 -5 43.32 -5 44 C-10.61 44 -16.22 44 -22 44 C-21.67 43.01 -21.34 42.02 -21 41 C-19.60370361 40.68216553 -19.60370361 40.68216553 -18.17919922 40.35791016 C-14.65054607 38.85074007 -14.41207695 38.50617928 -12.94189453 35.19287109 C-12.31541415 33.56187598 -11.7137793 31.92119365 -11.1328125 30.2734375 C-10.80836151 29.41062164 -10.48391052 28.54780579 -10.14962769 27.65884399 C-9.11972615 24.90505742 -8.12218023 22.14078217 -7.125 19.375 C-6.43178821 17.50442849 -5.73649953 15.63462525 -5.0390625 13.765625 C-3.33515996 9.18564489 -1.66017661 4.59600131 0 0 Z " fill="#3972BF" transform="translate(114,57)"/>
<path d="M0 0 C0.66 0 1.32 0 2 0 C2 8.58 2 17.16 2 26 C1.34 26 0.68 26 0 26 C-0.87279862 24.13360019 -1.72251027 22.25639389 -2.5625 20.375 C-3.27599609 18.80878906 -3.27599609 18.80878906 -4.00390625 17.2109375 C-5.36944695 12.80907688 -4.77502352 9.86130147 -3.02734375 5.6640625 C-2.66769531 4.99117187 -2.30804688 4.31828125 -1.9375 3.625 C-1.57527344 2.93664063 -1.21304687 2.24828125 -0.83984375 1.5390625 C-0.42412109 0.77722656 -0.42412109 0.77722656 0 0 Z " fill="#080808" transform="translate(329,56)"/>
<path d="M0 0 C2.31 0 4.62 0 7 0 C7 5.94 7 11.88 7 18 C6.34 18 5.68 18 5 18 C4.15621025 15.94175571 3.32536378 13.87820214 2.5 11.8125 C2.0359375 10.66394531 1.571875 9.51539063 1.09375 8.33203125 C0.09194348 5.28009923 -0.23870804 3.16884928 0 0 Z " fill="#030303" transform="translate(339,36)"/>
<path d="M0 0 C2.64 0.33 5.28 0.66 8 1 C8 21.13 8 41.26 8 62 C7.67 62 7.34 62 7 62 C7 42.53 7 23.06 7 3 C4.69 3 2.38 3 0 3 C0 2.01 0 1.02 0 0 Z " fill="#041F44" transform="translate(222,37)"/>
<path d="M0 0 C0.66 0 1.32 0 2 0 C2 1.32 2 2.64 2 4 C4.31 4.66 6.62 5.32 9 6 C9 6.66 9 7.32 9 8 C3.39 8 -2.22 8 -8 8 C-7.67 7.01 -7.34 6.02 -7 5 C-5 4.33333333 -3 3.66666667 -1 3 C-0.67 2.01 -0.34 1.02 0 0 Z " fill="#0B52B0" transform="translate(100,93)"/>
<path d="M0 0 C0 0.99 0 1.98 0 3 C0.99 3.33 1.98 3.66 3 4 C2.34 4 1.68 4 1 4 C0.67 4.66 0.34 5.32 0 6 C-0.99 5.34 -1.98 4.68 -3 4 C-6.19806665 3.5396236 -6.19806665 3.5396236 -9.6875 3.375 C-11.45673828 3.26285156 -11.45673828 3.26285156 -13.26171875 3.1484375 C-14.16535156 3.09945312 -15.06898438 3.05046875 -16 3 C-16 2.67 -16 2.34 -16 2 C-13.89627599 1.66388432 -11.79200343 1.33120054 -9.6875 1 C-8.51574219 0.814375 -7.34398437 0.62875 -6.13671875 0.4375 C-3 0 -3 0 0 0 Z " fill="#1C1C1C" transform="translate(389,67)"/>
<path d="M0 0 C0.33 0 0.66 0 1 0 C1.40652968 5.42039575 0.03993514 9.07015675 -2 14 C-2.66 13.67 -3.32 13.34 -4 13 C-3.52140759 11.39566191 -3.04210442 9.79153584 -2.5625 8.1875 C-2.29566406 7.29417969 -2.02882813 6.40085937 -1.75390625 5.48046875 C-1.19612127 3.64526945 -0.60655425 1.81966274 0 0 Z " fill="#2161B7" transform="translate(105,80)"/>
<path d="M0 0 C1.32 0.33 2.64 0.66 4 1 C4 1.66 4 2.32 4 3 C6.97 3 9.94 3 13 3 C13 3.33 13 3.66 13 4 C11.25034642 4.05429959 9.50020213 4.09292823 7.75 4.125 C6.77546875 4.14820312 5.8009375 4.17140625 4.796875 4.1953125 C1.9803502 3.99862781 0.39050964 3.44568916 -2 2 C-1.34 2 -0.68 2 0 2 C0 1.34 0 0.68 0 0 Z " fill="#505050" transform="translate(442,100)"/>
<path d="M0 0 C0.66 0.33 1.32 0.66 2 1 C1.01 3.97 0.02 6.94 -1 10 C-1.66 9.67 -2.32 9.34 -3 9 C-2.01 6.03 -1.02 3.06 0 0 Z " fill="#2866BA" transform="translate(114,57)"/>
</svg>
